<?xml version="1.0" encoding="iso-8859-1"?>
<!-- Generator: Adobe Illustrator 19.0.0, SVG Export Plug-In . SVG Version: 6.00 Build 0)  -->
<svg version="1.1" id="Capa_1" xmlns="http://www.w3.org/2000/svg" xmlns:xlink="http://www.w3.org/1999/xlink" x="0px" y="0px"
	 viewBox="0 0 512 512" style="enable-background:new 0 0 512 512;" xml:space="preserve">
<path style="fill:#010138;" d="M497,110H15c-8.284,0-15,6.716-15,15v322c0,8.284,6.716,15,15,15h482c8.284,0,15-6.716,15-15V125
	C512,116.716,505.284,110,497,110z"/>
<path style="fill:#010138;" d="M497,110H256v352h241c8.284,0,15-6.716,15-15V125C512,116.716,505.284,110,497,110z"/>
<path style="fill:#15BDFF;" d="M497,50H15C6.716,50,0,56.716,0,65v75h512V65C512,56.716,505.284,50,497,50z"/>
<path style="fill:#15BDFF;" d="M497,50H15C6.716,50,0,56.716,0,65v75h512V65C512,56.716,505.284,50,497,50z"/>
<g>
	<path style="fill:#f94c0c;" d="M416,233.5H186c-8.284,0-15-6.716-15-15s6.716-15,15-15h230c8.284,0,15,6.716,15,15
		S424.284,233.5,416,233.5z"/>
	<path style="fill:#f94c0c;" d="M416,403.5H96c-8.284,0-15-6.716-15-15s6.716-15,15-15h320c8.284,0,15,6.716,15,15
		S424.284,403.5,416,403.5z"/>
	<circle style="fill:#f94c0c;" cx="116" cy="218.5" r="20"/>
	<path style="fill:#f94c0c;" d="M256,318.5H96c-8.284,0-15-6.716-15-15s6.716-15,15-15h160c8.284,0,15,6.716,15,15
		S264.284,318.5,256,318.5z"/>
</g>
<g>
	<!-- <path style="fill:#f94c0c;" d="M416,203.5H256v30h160c8.284,0,15-6.716,15-15S424.284,203.5,416,203.5z"/> -->
<!-- 	<path style="fill:#f94c0c;" d="M416,203.5H256v30h160c8.284,0,15-6.716,15-15S424.284,203.5,416,203.5z"/> -->
	<!-- <path style="fill:#f94c0c;" d="M416,203.5H256v30h160c8.284,0,15-6.716,15-15S424.284,203.5,416,203.5z"/> -->
	<circle style="fill:#f94c0c;" cx="396" cy="303.5" r="20"/>
	<circle style="fill:#f94c0c;" cx="326" cy="303.5" r="20"/>
</g>
<g>
</g>
<g>
</g>
<g>
</g>
<g>
</g>
<g>
</g>
<g>
</g>
<g>
</g>
<g>
</g>
<g>
</g>
<g>
</g>
<g>
</g>
<g>
</g>
<g>
</g>
<g>
</g>
<g>
</g>
</svg>
